<svg xmlns="http://www.w3.org/2000/svg" width="390.512" height="385.284" viewBox="0 0 390.512 385.284">
  <g>
    <path d="M282.681,109.031c-.014.659-.041,1.318-.069,1.978-6.92-1.888-13.451-5.1-19.976-8.128-6.489-3.658-10.834-10.036-14.755-16.227.714-.215.263-1.368-.125-1.7a2.625,2.625,0,0,0-1.985-.763c-3.839-.1-7.7.791-11.543.354a31.649,31.649,0,0,0-9.161.139c-.708.132-.9,1.006-.9,1.818-.055,7,.868,14.027.646,21.086.145,4.636.694,9.266.277,13.9-.194,3.179-1.089,6.5-1.152,9.745-.59,6.948.555,13.881.375,20.836-1,12.236-.569,24.563-.4,36.834.174,7.864-1.013,15.61-.506,23.543.319,4.983,1.11,9.946,1.048,14.95a87.391,87.391,0,0,1-1.305,12.4c-2.145,7.108-7,13.729-11.924,19.309-6.275,5.99-15.367,7.246-23.113,10.55-13.826,6.8-21.2,7.073-31.372,1.069a45.708,45.708,0,0,0,18.247-.521c7.83-1.395,15.992-3.137,22.509-7.981,4.8-3.04,7.4-8.44,9.821-13.486a66.608,66.608,0,0,0,7.024-22.543c2.658-16.394.646-32.976.285-49.446.423-5.06-.014-10.321-.042-15.457a49.642,49.642,0,0,0-.541-11.279,154.973,154.973,0,0,0-.271-18.309c-.729-7.628,1.694-15.207,1.013-22.863-.749-6.253.125-12.465.389-18.719.555-2.262-1.346-14.207,1.27-13.937a34.746,34.746,0,0,1,9.828.8,129.153,129.153,0,0,0,15.756.681,4.2,4.2,0,0,0,3.595,1.214c3.04,1.333,5.233,5.914,8.037,8.093C262.886,94.83,271.194,104.443,282.681,109.031Z" fill="#6bc7d6"/>
    <path d="M188.121,153.16c-.347,3.213-.8,6.35-1.159,9.5a77.115,77.115,0,0,0-49.147,13.09c-5.441,4.13-9.252,9.905-14.11,14.652-5.234,5.574-7.753,13.056-10.377,20.1-3.463,9.12-8.148,18.5-7.419,28.5a94.88,94.88,0,0,0,1.915,10.2c1.562,6.427,1.9,13.326,5.143,19.212a57.044,57.044,0,0,0,6.164,10.036c-.861-.729-1.728-1.458-2.6-2.166-6.386-7-12.042-14.95-14.978-24.1-1.992-7.343-4.692-15.38-4.241-23.341.292-12.348,4.054-24.688,9.925-35.578,3.387-6.524,7.239-12.945,12.6-18.108,10.647-10.856,24.771-18.5,40.1-19.6C169.319,154.707,178.654,152,188.121,153.16Z" fill="#6bc7d6"/>
    <path d="M195.527,167.908c1.464,6.858.312,14.132-.222,21.135-6.809.444-13.68-.493-20.441.472-4.837.951-10.022,3.3-14.513,5.684a45.363,45.363,0,0,1-5.621,4.137c-19.344,9.467-27.1,38.75-16.887,57.406A46.89,46.89,0,0,1,126,229.757c-.59-6.49-.486-13.437,2.054-19.5,1.4-4.026,4.567-7.066,7.094-10.4,2.922-3.283,4.942-7.191,8.537-9.856a45.008,45.008,0,0,1,30.289-8.822,49.1,49.1,0,0,1,12.542,1.992,1.337,1.337,0,0,0,.972-.048.443.443,0,0,0,.284-.611c.486-1.68.805-3.4,1.277-5.088a41.166,41.166,0,0,0,1.971-9.731A44.784,44.784,0,0,1,195.527,167.908Z" fill="#f33457"/>
    <path d="M251.365,129.186c1.631,15.395,2.457,30.47-.361,45.795-.875,11.286.763,22.523.382,33.808C250.379,237,255.5,252.418,235.5,276.1c-6.149,7.843-11.431,16.623-20.7,21.162-5.08,2.325-10.772,2.894-16.192,4.47-6.9,1.069-13.875,1.256-20.788,2.228-7.648.361-14.908-1.652-22-4.373,2.4.3,4.81.556,7.2.965a48.445,48.445,0,0,0,22.668-1.916c5.164-2.186,10.869-3.158,15.686-6.107,10.744-8.121,21.738-16.95,28.984-28.464,6.434-10.939,7.7-23.855,10.03-36.092,1.443-5.955,3.234-11.82,4.351-17.844,2.985-15.8-1.131-31.615-1.27-47.419-.027-5.657,1.409-11.279,1.916-16.915.965-7.683.007-15.456.715-23.14a52.92,52.92,0,0,0,5.33,4.713C251.386,127.9,251.365,128.5,251.365,129.186Z" fill="#f33457"/>
    <path d="M293.488,117.262a169.732,169.732,0,0,0-1.069,24.883,27.632,27.632,0,0,1-10-2.971c.722-.84.639-2.464.931-3.5.666-3.693,1.082-7.427,1.582-11.147.444-2.95.909-5.892,1.152-8.87C288.567,116.124,291.052,116.554,293.488,117.262Z" fill="#f33457"/>
    <path d="M346.629,9.63a.007.007,0,0,1-.007-.007.818.818,0,0,0,.079.023C346.676,9.64,346.652,9.634,346.629,9.63Z"/>
    <path d="M277.994,6.6h-.009l.081,0Z"/>
    <path d="M381.649,278.377c1.256-14.583,1.665-28.367-.063-42.769-1.2-15.471-2.8-30.983-2.45-46.51.548-13.3,1.694-27.179,2.249-40.256.541-14.429-.521-28.852-.916-43.282-.472-15.582-.694-31.191-1.749-46.745-.611-6.1-3.151-11.758-6.421-16.873a37.9,37.9,0,0,0-10.73-12.16A51.335,51.335,0,0,0,345.6,19.461c-4.109-1.957-8.01-4.394-12.431-5.587-3.373-.715-6.677.138-10,.992a27.969,27.969,0,0,1-8.03,1.25c-7.677.222-15.332-.292-22.988-.826-7.787-.354-15.436-2.277-23.216-2.492-9.405-.25-18.359-1.7-27.728-1.194-14.18.34-28.02,3.963-42.172,4.463-10.564.416-21.1-.3-31.629-1.02-13.4-.66-26.777.34-40.117,1.485-16.22,1.187-32.628.9-48.363,5.455q-6.018,1.031-12.084,1.673C55.95,24.9,44.331,23.3,34.308,28.63,10.4,41.8,10.516,61.14,10.578,85.391c-.506,11.535-1.409,23.3-2.249,34.654-.277,8.19.438,16.367.542,24.557.236,13.4-1.118,26.749-1.09,40.138,0,14.034,1.61,28,1.777,42.039-.056,15.4-1.916,30.741-.972,46.142.458,13.521,1.881,26.979,2.589,40.485.41,6.684.118,13.479,1.7,20.031,3.054,11.05,10.945,20.44,19.343,27.936,9.238,8.9,22.946,9.127,35.009,10.1,6.642.486,13.319,1.249,19.975,1.478,3.818.105,7.642-.027,11.46-.159,4.747-.167,9.5-.34,14.263-.035.506-.014,1.006-.021,1.506-.021a153.668,153.668,0,0,1,16.081,1.118c7.122.735,14.222,1.478,21.315.909,16.228-1.173,32.337-4.116,48.655-3.977,6.753-.111,13.409,1.083,20.128,1.471,2.144.084,4.3.028,6.441-.034a70.834,70.834,0,0,1,7.967.055c8.232.6,15.853,1.722,23.939,1.361,14.374-1.041,28.54-4.227,42.949-5.046a136.072,136.072,0,0,1,15.207-.514c6.441.021,12.84.049,19.212-1.11,11.882-2.86,29.345-10.134,35.786-20.822,3.158-6.108,4.262-12.938,5.775-19.573a108.718,108.718,0,0,0,2.963-23.425C381.392,294.9,381.42,286.629,381.649,278.377Zm7.7-82.386c2.02,13.055,1.214,26.117-.882,39.1-1.527,13.438-1.062,26.958-.708,40.444,1.5,15.207-1.547,30.234-2.255,45.378-2.18,22.134-1.6,36.772-23.842,48.037a156.773,156.773,0,0,1-15.151,8.342c-14.027,5.608-29.686,5.414-44.532,4.366-9.89-2.228-19.961-2.172-29.928-2.4-8.121-.035-16.241-.278-24.362.014-18.046,1.513-35.939,6.017-54.116,6.017q-4.206,0-8.426-.347c-11.5-.944-23-1.062-34.523-1.256-10.994-.68-21.961-2.069-32.969-.805-5.379-.007-10.744.187-16.109.381-8.613.313-17.22.625-25.833.125-9.9-.027-19.913-1.006-29.172-4.719C30.88,371.854,19.816,354.2,10.5,340.537c-5.983-9.078-7.565-20.37-8.579-30.872C-1.7,286.692.785,263.69,1.451,240.64c-.416-21.912,2.915-43.011,2.478-64.715-1.5-17.31-2.5-34.641-1.277-52.014.375-10.369-.278-20.745.3-31.115C4.234,77.208,5.63,61.445,9.239,46.2c2.686-15.38,12.653-30.219,27.742-35.591,15.1-4.491,31.052-2.929,46.537-4.873,13.3-.833,26.395.722,39.534,1.374A349.2,349.2,0,0,0,192.39,1.818C203.863.27,215.544-.688,227.086.6c.847.194,1.694.382,2.541.576,3.387.757,6.808,1.43,10.188,2.221l1.049.25c3.158.764,6.322,1.437,9.494,2.131a40.04,40.04,0,0,0,6.275.923c2.721.1,5.42-.049,8.148-.125,2.658-.069,5.261-.361,7.919-.285,1.694.1,3.394.236,5.1.3a1.179,1.179,0,0,1,.16.007h.111c.25.007.492.021.735.035l-.305-.021a117.9,117.9,0,0,0,16.338-.826c1.784-.188,3.575-.4,5.366-.507,1.554-.1,3.109-.09,4.664-.09h1.645l.659.021c.729.034,1.458.048,2.186.069.424.014.847.035,1.263.049,2.853.34,5.747.534,8.614.833,2.179.222,4.331.638,6.5.846,1.68.167,3.374.222,5.053.389,2.492.257,4.977.534,7.482.645-.264-.006-.52-.02-.777-.034a40.14,40.14,0,0,1,6.226.86c.1.021.187.042.277.07.514.132,1.021.257,1.534.382-.25-.063-.5-.118-.756-.181.59.167,1.187.319,1.776.472a.721.721,0,0,0-.131-.028c.145.049.3.1.444.16,1.534.687,2.991,1.52,4.56,2.159-.222-.091-.437-.181-.66-.271.223.1.445.194.667.284a14.635,14.635,0,0,0,2.276.854,82.713,82.713,0,0,1,20.406,18.192C383.217,43.51,387.52,56.483,386.445,72c-.195,19.212,3.109,38.333,1.915,57.538C386.507,151.667,386.458,173.947,389.346,195.991Z"/>
    <path d="M187.851,155.512q.146-1.165.27-2.352c-9.467-1.16-18.8,1.547-28.186,2.394-15.332,1.1-29.456,8.745-40.1,19.6-5.359,5.163-9.211,11.584-12.6,18.108-5.871,10.89-9.633,23.23-9.925,35.578-.451,7.961,2.249,16,4.241,23.341,2.936,9.155,8.592,17.1,14.978,24.1.867.708,1.735,1.43,2.6,2.159-.215-.3-.431-.59-.646-.888-.375-.521-.742-1.042-1.1-1.562-.271-.375-.528-.757-.778-1.145-.187-.271-.361-.549-.541-.826-.229-.361-.458-.722-.673-1.09-.146-.222-.278-.451-.41-.673-.18-.3-.354-.6-.52-.909-.084-.146-.16-.292-.243-.438-.181-.333-.361-.673-.535-1.013-.048-.09-.09-.187-.139-.278-.2-.4-.388-.8-.576-1.207-3.241-5.886-3.581-12.785-5.143-19.212a94.88,94.88,0,0,1-1.915-10.2c-.729-10,3.956-19.378,7.419-28.5,2.624-7.045,5.143-14.527,10.377-20.1,4.858-4.747,8.669-10.522,14.11-14.652a72.544,72.544,0,0,1,12.6-6.975c.882-.382,1.77-.743,2.666-1.09q2.685-1.041,5.455-1.874c.916-.277,1.846-.541,2.776-.784s1.86-.472,2.8-.68c.847-.187,1.7-.361,2.554-.521.639-.125,1.278-.236,1.923-.34q2.665-.436,5.365-.687l.243-.021a77.355,77.355,0,0,1,11.411-.2l1.346.083C187.233,160.281,187.559,157.914,187.851,155.512Zm7.454,33.531c.534-7,1.686-14.277.222-21.135a44.784,44.784,0,0,0-4.5-.222c-.027.327-.062.646-.1.972-.014.146-.028.292-.048.437-.091.764-.2,1.534-.327,2.3-.062.368-.125.735-.2,1.11-.014.084-.028.16-.048.236-.056.3-.118.6-.188.9-.028.138-.062.27-.1.409-.042.2-.1.41-.153.611-.041.194-.1.395-.152.59-.2.729-.417,1.45-.66,2.165-.472,1.687-.791,3.408-1.277,5.088a.443.443,0,0,1-.284.611,1.337,1.337,0,0,1-.972.048,49.1,49.1,0,0,0-12.542-1.992,45.008,45.008,0,0,0-30.289,8.822c-3.595,2.665-5.615,6.573-8.537,9.856-2.527,3.338-5.692,6.378-7.094,10.4-2.54,6.066-2.644,13.013-2.054,19.5.035.4.076.791.125,1.18.09.812.208,1.617.347,2.415q.082.51.187,1.021c.021.1.035.187.056.277.076.361.153.722.236,1.083.083.4.18.784.284,1.18.216.847.452,1.693.722,2.526.1.327.208.653.319.979s.223.645.341.965c.236.652.485,1.3.756,1.943.118.292.236.576.368.861.111.257.222.506.34.756.146.32.292.639.444.951.139.285.278.562.424.84.111.222.229.444.347.666.465.889.964,1.756,1.492,2.61q.24.407.5.791c.166.264.34.528.513.785.347.52.708,1.027,1.083,1.533.181.25.368.507.562.75s.375.493.576.736c.382.486.778.964,1.194,1.436.2.236.41.472.625.7-.181-.333-.361-.666-.528-1.006a.126.126,0,0,1-.034-.076c-.16-.306-.306-.611-.445-.923a1.715,1.715,0,0,1-.1-.223c-.152-.333-.305-.673-.444-1.02s-.284-.7-.423-1.055l-.084-.229c-.1-.277-.2-.555-.3-.833-.076-.215-.146-.437-.215-.666a36.167,36.167,0,0,1-1.1-4.255c-.041-.18-.076-.361-.1-.548-.062-.3-.111-.59-.16-.888q-.093-.552-.166-1.1c-.035-.243-.063-.486-.09-.729s-.063-.5-.084-.756c-.02-.2-.041-.4-.055-.6-.021-.146-.028-.306-.042-.458-.028-.326-.048-.653-.062-.986-.021-.361-.042-.736-.049-1.1-.014-.458-.021-.91-.021-1.368-.007-11.952,4.6-24.334,12.848-32.454.166-.167.333-.334.506-.493a32.438,32.438,0,0,1,8.045-5.636,45.363,45.363,0,0,0,5.621-4.137c4.491-2.38,9.676-4.733,14.513-5.684C181.625,188.55,188.5,189.487,195.305,189.043ZM251,174.981c2.818-15.325,1.992-30.4.361-45.795,0-.173,0-.34.007-.5,0-.132,0-.264.007-.389,0-.09,0-.174.007-.264.013-.236.027-.451.041-.659v-.007c-.451-.347-.895-.7-1.339-1.062-.035-.028-.07-.062-.1-.09-.389-.32-.771-.653-1.153-.986-.076-.069-.152-.132-.229-.2-.319-.278-.631-.569-.944-.868-.527-.486-1.055-.992-1.561-1.506-.708,7.684.25,15.457-.715,23.14-.507,5.636-1.943,11.258-1.916,16.915.139,15.8,4.255,31.622,1.27,47.419-1.117,6.024-2.908,11.889-4.351,17.844-2.326,12.237-3.6,25.153-10.03,36.092-7.246,11.514-18.24,20.343-28.984,28.464-4.817,2.949-10.522,3.921-15.686,6.107a48.445,48.445,0,0,1-22.668,1.916c-2.381-.409-4.789-.666-7.191-.965,1.472.569,2.95,1.1,4.442,1.59.264.09.535.173.8.257.306.1.618.194.923.284.417.132.833.25,1.25.368.354.1.715.2,1.076.292l.479.124c.714.181,1.436.354,2.165.5.868.188,1.728.347,2.6.479.423.069.853.132,1.277.181q1.291.167,2.582.249c.347.028.694.049,1.048.056,1.1.049,2.221.049,3.345-.007,6.913-.972,13.889-1.159,20.788-2.228,5.42-1.576,11.112-2.145,16.192-4.47,9.273-4.539,14.555-13.319,20.7-21.162,20-23.682,14.881-39.1,15.888-67.311C251.767,197.5,250.129,186.267,251,174.981ZM282.348,114.9a36.486,36.486,0,0,1-3.734-1.048c-4.255-1.291-8.044-3.817-11.876-5.976-8.044-4.573-15.165-10.73-19.239-19.121-.41-.618-1.111-1.534-.965-2.346-2.776-.285-5.5.187-8.28.139-3.457.312-7.378.048-10.5,1.589.034,4.359,1.36,8.065,1.1,12.32.014,2.839-.548,5.587-.8,8.4-.8,7.066-.042,14.326-.618,21.391-.291,14.222,1.236,28.4.084,42.63a199.6,199.6,0,0,0,2.033,30.248,122.147,122.147,0,0,1-2.589,37.868c-3.213,10.592-12.59,29.415-22.835,34.176-11.021,4.879-23.66,7.545-35.626,5.018-5.039-1.263-9.606-3.991-14.069-6.573a36.419,36.419,0,0,1-9.863-6.933,35.648,35.648,0,0,1-11.577-9.329c-8.322-8.377-10.681-20.648-10.078-32.052.542-7.787.6-15.9,3.873-23.133,3.485-7.947,10.39-13.167,17.935-16.845,6.129-3.956,12.792-7.1,20.253-6.99a47.838,47.838,0,0,1,21.71,3.138c.521-2.784-.2-5.525-.319-8.308-.041-1.784.007-3.547.118-5.282-6.9.541-13.77,2.124-20.634,2.838-13.118,3.013-27.694,6.185-36.224,17.567-3.213,4.755-5.428,9.78-8.655,14.486-3.748,5.5-7.288,11.285-8.9,17.83a95.8,95.8,0,0,0,.715,39.285c2.353,8.7,8.35,15.935,14.492,22.265a35.8,35.8,0,0,0,4.872,5.74,88.341,88.341,0,0,0,13.91,4.935c8.28,1.93,16.518,5.469,25.16,4.428,9.293-1.235,18.733-2.991,26.832-7.787,4.1-3,7.829-6.469,11.931-9.46a28.123,28.123,0,0,0,6.837-5.976c4.13-5.227,7.135-11.307,9.849-17.338,2.707-6.219,6.337-12.049,8.363-18.553,4.782-12.535,3.88-26.27,4.442-39.457.639-10.321,1.729-20.587,1.347-30.935-.694-14.118-1.326-28.617-.861-42.7.493-19.809,5.046-6.441,14.256-1.5,7.621,4.948,16.4,7.135,24.793,10.334A118.393,118.393,0,0,0,282.348,114.9Zm.292-4.636c.02-.409.034-.826.041-1.235-11.487-4.588-19.795-14.2-29.026-22.065-2.8-2.179-5-6.76-8.037-8.093a4.2,4.2,0,0,1-3.595-1.214,129.153,129.153,0,0,1-15.756-.681,34.746,34.746,0,0,0-9.828-.8c-2.616-.27-.715,11.675-1.27,13.937-.264,6.254-1.138,12.466-.389,18.719.681,7.656-1.742,15.235-1.013,22.863a154.973,154.973,0,0,1,.271,18.309,49.642,49.642,0,0,1,.541,11.279c.028,5.136.465,10.4.042,15.457.361,16.47,2.373,33.052-.285,49.446a66.608,66.608,0,0,1-7.024,22.543c-2.422,5.046-5.018,10.446-9.821,13.486-6.517,4.844-14.679,6.586-22.509,7.981a45,45,0,0,1-11.361,1.187c-.181,0-.361-.007-.542-.014-.222-.007-.444-.013-.666-.027-.583-.028-1.166-.063-1.756-.118-.3-.021-.59-.049-.882-.084-.721-.076-1.443-.166-2.165-.277l-.875-.146.007.007c.9.534,1.784,1.013,2.645,1.444.291.145.576.284.86.416.264.125.528.243.792.361.048.021.09.035.138.055.257.118.514.223.771.32a.594.594,0,0,0,.118.048c.243.1.486.188.722.271.277.1.555.2.833.285s.555.173.832.249.59.16.882.236c.257.063.52.118.777.167s.521.1.785.146a21.171,21.171,0,0,0,2.2.243l.458.021c.25.006.493.013.742.013,5.046,0,10.536-1.769,17.81-5.351,7.746-3.3,16.838-4.56,23.113-10.55,4.928-5.58,9.779-12.2,11.924-19.309a87.391,87.391,0,0,0,1.305-12.4c.062-5-.729-9.967-1.048-14.95-.507-7.933.68-15.679.506-23.543-.166-12.271-.6-24.6.4-36.834.18-6.955-.965-13.888-.375-20.836.063-3.241.958-6.566,1.152-9.745.417-4.636-.132-9.266-.277-13.9.222-7.059-.7-14.09-.646-21.086,0-.812.2-1.686.9-1.818a31.649,31.649,0,0,1,9.161-.139c3.845.437,7.7-.458,11.543-.354a2.625,2.625,0,0,1,1.985.763c.388.333.839,1.486.125,1.7,3.921,6.191,8.266,12.569,14.755,16.227.41.188.813.382,1.222.569s.819.382,1.229.569c3.852,1.8,7.725,3.6,11.7,5.088.277.1.562.208.846.312q.563.209,1.125.4,1.145.4,2.3.743c.514.159,1.034.312,1.555.451,0-.028.007-.056.007-.084C282.626,110.7,282.633,110.488,282.64,110.266Zm10.848,7c-.458-.132-.916-.257-1.381-.368-.431-.111-.861-.215-1.284-.305l-1.048-.229c-.583-.118-1.166-.229-1.743-.34-.652-.118-1.3-.243-1.95-.361-.083,1.006-.187,2.013-.312,3.012-.028.222-.056.451-.09.68-.042.368-.1.743-.153,1.118-.188,1.353-.4,2.707-.6,4.06-.5,3.72-.916,7.454-1.582,11.147a1.688,1.688,0,0,0-.049.2l-.042.167c-.069.388-.118.833-.18,1.277-.028.139-.049.277-.077.416a4.37,4.37,0,0,1-.256.889c-.021.062-.056.125-.084.187l-.02.042c-.035.055-.063.1-.1.152a.715.715,0,0,1-.125.167c.118.056.236.111.361.167.16.076.327.152.486.222.653.3,1.312.583,1.978.84.146.062.292.118.445.173.131.056.263.1.388.146l.458.166c.674.229,1.347.438,2.034.618l.4.1c.105.021.209.049.313.07.4.09.8.173,1.2.236.208.041.423.069.631.1s.43.055.653.076.43.042.652.056A169.732,169.732,0,0,1,293.488,117.262Zm88.1,118.346c1.728,14.4,1.319,28.186.063,42.769-.229,8.252-.257,16.525-.8,24.771a108.718,108.718,0,0,1-2.963,23.425c-1.513,6.635-2.617,13.465-5.775,19.573-6.441,10.688-23.9,17.962-35.786,20.822-6.372,1.159-12.771,1.131-19.212,1.11a136.072,136.072,0,0,0-15.207.514c-14.409.819-28.575,4-42.949,5.046-8.086.361-15.707-.757-23.939-1.361a70.834,70.834,0,0,0-7.967-.055c-2.145.062-4.3.118-6.441.034-6.719-.388-13.375-1.582-20.128-1.471-16.318-.139-32.427,2.8-48.655,3.977-7.093.569-14.193-.174-21.315-.909a153.668,153.668,0,0,0-16.081-1.118c-.5,0-1,.007-1.506.021-4.762-.3-9.516-.132-14.263.035-3.818.132-7.642.264-11.46.159-6.656-.229-13.333-.992-19.975-1.478-12.063-.972-25.771-1.2-35.009-10.1-8.4-7.5-16.289-16.886-19.343-27.936-1.583-6.552-1.291-13.347-1.7-20.031-.708-13.506-2.131-26.964-2.589-40.485-.944-15.4.916-30.747.972-46.142-.167-14.034-1.777-28-1.777-42.039C7.753,171.351,9.107,158,8.871,144.6c-.1-8.19-.819-16.367-.542-24.557.84-11.355,1.743-23.119,2.249-34.654-.062-24.251-.18-43.6,23.73-56.761C44.331,23.3,55.95,24.9,66.846,23.66q6.07-.645,12.084-1.673c15.735-4.553,32.143-4.268,48.363-5.455,13.34-1.145,26.722-2.145,40.117-1.485,10.529.721,21.065,1.436,31.629,1.02,14.152-.5,27.992-4.123,42.172-4.463,9.369-.507,18.323.944,27.728,1.194,7.78.215,15.429,2.138,23.216,2.492,7.656.534,15.311,1.048,22.988.826a27.969,27.969,0,0,0,8.03-1.25c3.318-.854,6.622-1.707,10-.992,4.421,1.193,8.322,3.63,12.431,5.587a51.335,51.335,0,0,1,15.97,10.321,37.9,37.9,0,0,1,10.73,12.16c3.27,5.115,5.81,10.772,6.421,16.873,1.055,15.554,1.277,31.163,1.749,46.745.395,14.43,1.457,28.853.916,43.282-.555,13.077-1.7,26.958-2.249,40.256C378.789,204.625,380.385,220.137,381.586,235.608Z" fill="#2e2a2a"/>
  </g>
</svg>
